<svg version="1.1" id="Layer_1" xmlns="http://www.w3.org/2000/svg" xmlns:xlink="http://www.w3.org/1999/xlink" x="0" y="0" width="432.63" height="139.77" viewBox="0 0 432.63 139.77" xml:space="preserve" enable-background="new 0 0 432.63 139.768">
  <style type="text/css">
    
	.st0{fill:#F47B20;}
	.st1{fill:#455560;}

  </style>
  <path class="st0" d="M389.48 57.89c-0.26-8.01-6.73-14.48-14.73-14.73v-8.48c12.68 0.26 22.95 10.53 23.22 23.22H389.48z"/>
  <path class="st0" d="M375.24 35.19c12.01 0.51 21.69 10.19 22.2 22.2h-7.49c-0.5-7.89-6.82-14.21-14.71-14.71V35.19M374.24 34.17v9.48c8.13 0 14.74 6.61 14.74 14.74h9.48C398.46 45.03 387.6 34.17 374.24 34.17L374.24 34.17z"/>
  <path class="st0" d="M406.33 57.89c-0.27-17.3-14.29-31.32-31.59-31.59V17.82c21.98 0.27 39.8 18.09 40.07 40.07H406.33z"/>
  <path class="st0" d="M375.24 18.33c21.3 0.53 38.53 17.76 39.06 39.06h-7.48c-0.52-17.18-14.4-31.06-31.58-31.58V18.33M374.24 17.32v9.48c17.42 0 31.59 14.17 31.59 31.59h9.48C415.31 35.74 396.89 17.32 374.24 17.32L374.24 17.32z"/>
  <path class="st0" d="M423.23 57.89c-0.27-26.62-21.87-48.22-48.48-48.48V1c31.25 0.27 56.62 25.64 56.89 56.88H423.23z"/>
  <path class="st0" d="M375.24 1.51c30.58 0.53 55.35 25.3 55.88 55.88h-7.4c-0.53-26.49-21.98-47.95-48.48-48.48V1.51M374.24 0.5v9.4c26.74 0 48.49 21.75 48.49 48.49h9.4C432.13 26.47 406.16 0.5 374.24 0.5L374.24 0.5z"/>
  <path class="st0" d="M98.29 108.34c-3.81 0-6.38-1.36-6.38-3.37 0-2.36 2.28-3.57 7.86-4.17 4.43-0.49 7.3-1.17 9.33-2.24v2.93C109.09 107.67 101.54 108.34 98.29 108.34z"/>
  <path class="st0" d="M108.59 99.35v2.13c0 5.73-7.2 6.35-10.3 6.35 -3.46 0-5.88-1.18-5.88-2.87 0-1.49 0.9-2.97 7.41-3.67C103.81 100.85 106.56 100.25 108.59 99.35M109.59 97.69c-2.21 1.42-5.61 2.13-9.88 2.61 -5.14 0.55-8.3 1.66-8.3 4.66 0 2.29 2.69 3.88 6.88 3.88 6.24 0 11.3-2.13 11.3-7.35V97.69L109.59 97.69z"/>
  <path class="st0" d="M144.66 108c-5.56 0-9.92-4.81-9.92-10.95 0-6.27 4.36-11.19 9.92-11.19 5.47 0 9.92 5.02 9.92 11.19C154.58 103.09 150.13 108 144.66 108z"/>
  <path class="st0" d="M144.66 86.37c5.2 0 9.42 4.79 9.42 10.69 0 5.76-4.23 10.45-9.42 10.45 -5.28 0-9.42-4.59-9.42-10.45C135.24 91.06 139.38 86.37 144.66 86.37M144.66 85.37c-5.77 0-10.42 5.05-10.42 11.69 0 6.48 4.66 11.45 10.42 11.45 5.76 0 10.42-5.13 10.42-11.45C155.08 90.58 150.43 85.37 144.66 85.37L144.66 85.37z"/>
  <path class="st0" d="M149.54 138.77l-1.36-0.02H17.32L1 138.77V58.43c0-7.85 6.39-14.24 14.24-14.24h17.76l0.5 0h130.84l13.64 0v80.33c0 7.85-6.39 14.24-14.24 14.24H149.54zM142.5 75.23c-11.13 0-19.85 9.55-19.85 21.74 0 12.15 8.72 21.66 19.85 21.66 4.57 0 8.68-1.56 11.97-4.54v3.67h10.95V58.02h-11.42v21.34C150.78 76.65 146.83 75.23 142.5 75.23zM101.77 84.43c4.55 0 6.93 1.7 6.93 3.37 0 2.7-3.92 3.57-11.17 4.25 -8.47 0.74-17.14 2.85-17.14 12.83 0 9.47 8.55 13.7 17.03 13.7 5.14 0 9.23-1.36 12.16-4.06 0.24 1.21 0.53 2.17 0.9 2.98l0.13 0.29h10.59l-0.23-0.67c-0.55-1.56-1.15-4.6-1.15-6.47V89.46c0-3.38-1.32-14.42-18.29-14.42 -10.63 0-18.52 5.61-19.63 13.96l-0.07 0.56h11.39l0.1-0.37C94.21 85.92 98.32 84.43 101.77 84.43zM59.56 85.95c6.39 0 7.08 5.28 7.08 7.55v24.27h11.42V93.5c0-11.36-6.79-18.42-17.71-18.42 -4.88 0-9.26 1.94-12.39 5.48 -2.99-3.54-7.29-5.48-12.17-5.48 -3.9 0-7.34 1.44-10 4.17v-3.14H14.75v41.67H26.26V93.5c0-4.38 3.08-7.55 7.31-7.55 6.16 0 7.08 4.73 7.08 7.55v24.27h11.5V93.5C52.16 89.12 55.27 85.95 59.56 85.95z"/>
  <path class="st0" d="M32.51 44.69v0h1 130.84l13.14 0v18.82 45.39 10.52 5.1c0 7.58-6.17 13.74-13.74 13.74h-12.82l0.02-0.02h-2.76H17.32L1.5 138.27v-18.84V74.05 63.51v-5.08c0-7.58 6.17-13.74 13.74-13.74H32.51M153.5 78.32c-3.15-2.35-6.91-3.59-11-3.59 -11.41 0-20.35 9.77-20.35 22.24 0 12.43 8.94 22.16 20.35 22.16 4.31 0 8.24-1.36 11.47-3.95v2.09 1h1 9.95 1v-1V58.52v-1h-1 -10.42 -1v1V78.32M81.26 90.07h1.14 10.44 0.76l0.2-0.74c0.79-2.89 4.6-4.4 7.97-4.4 4.18 0 6.43 1.48 6.43 2.87 0 2.3-3.93 3.12-10.71 3.75 -8.19 0.72-17.6 2.88-17.6 13.33 0 9.81 8.8 14.2 17.53 14.2 4.91 0 8.88-1.22 11.85-3.63 0.21 0.88 0.46 1.62 0.76 2.26l0.27 0.58h0.64 9.57 1.41l-0.47-1.33c-0.53-1.52-1.13-4.48-1.13-6.31V89.46c0-3.5-1.35-14.92-18.79-14.92 -10.9 0-18.98 5.78-20.12 14.39L81.26 90.07M47.96 79.81c-3.07-3.38-7.35-5.23-12.18-5.23 -3.64 0-6.88 1.2-9.5 3.5v-1.48 -1h-1H15.25h-1v1 40.67 1h1H25.76h1v-1V93.5c0-4.09 2.87-7.05 6.81-7.05 5.72 0 6.58 4.42 6.58 7.05v23.77 1h1 10.5 1v-1V93.5c0-4.09 2.9-7.05 6.9-7.05 2.46 0 6.58 0.92 6.58 7.05v23.77 1h1 10.42 1v-1V93.5c0-11.5-7.15-18.92-18.21-18.92C55.51 74.57 51.16 76.42 47.96 79.81M178.48 43.69l-14.14 0H33.51v0H15.24C7.11 43.69 0.5 50.3 0.5 58.43v5.08 10.54 45.38 19.84l16.82-0.02H148.18l-0.02 0.02h15.58c8.13 0 14.74-6.61 14.74-14.74v-5.1 -10.52V63.51 43.69L178.48 43.69zM154.5 80.47V58.52h10.42v58.75h-9.95v-4.35c-3.24 3.32-7.5 5.21-12.47 5.21 -10.58 0-19.35-9.16-19.35-21.16 0-12.08 8.77-21.24 19.35-21.24C147.23 75.73 151.34 77.47 154.5 80.47L154.5 80.47zM82.4 89.07c1.03-7.75 8.46-13.52 19.13-13.52 16.52 0 17.79 10.67 17.79 13.92v21.19c0 1.98 0.63 5.06 1.18 6.64h-9.57c-0.47-1.03-0.79-2.29-1.03-3.79 -2.69 2.85-6.8 4.59-12.49 4.59 -8.62 0-16.53-4.35-16.53-13.2 0-9.17 7.67-11.54 16.69-12.33 6.8-0.63 11.62-1.42 11.62-4.74 0-2.13-2.77-3.87-7.43-3.87 -3.71 0-7.99 1.66-8.93 5.14H82.4L82.4 89.07zM47.95 81.34c2.92-3.55 7.19-5.77 12.4-5.77 10.9 0 17.21 7.26 17.21 17.92v23.77H67.14V93.5c0-2.37-0.79-8.05-7.58-8.05 -4.66 0-7.9 3.48-7.9 8.05v23.77H41.15V93.5c0-2.37-0.71-8.05-7.58-8.05 -4.58 0-7.81 3.48-7.81 8.05v23.77H15.25V76.6h10.03v3.95c2.53-3.08 6.08-4.97 10.5-4.97C40.84 75.57 45.1 77.71 47.95 81.34L47.95 81.34z"/>
  <path class="st1" d="M241.77 116.9V93.53c0-2.01-0.58-8.59-8.11-8.59 -4.88 0-8.43 3.61-8.43 8.59v23.37h-9.54V93.53c0-2.01-0.58-8.59-8.11-8.59 -4.84 0-8.35 3.61-8.35 8.59v23.37h-9.55V77.07h9.07v4.86l0.89-1.08c2.58-3.15 6.1-4.81 10.16-4.81 4.8 0 8.99 1.99 11.82 5.6l0.38 0.49 0.4-0.48c2.97-3.61 7.26-5.6 12.06-5.6 10.35 0 16.79 6.71 16.79 17.5v23.37H241.77z"/>
  <path class="st1" d="M234.45 76.54c10.05 0 16.29 6.51 16.29 17v22.87h-8.46V93.53c0-4.39-2.26-9.09-8.61-9.09 -5.17 0-8.93 3.82-8.93 9.09v22.87h-8.54V93.53c0-2.13-0.62-9.09-8.61-9.09 -5.04 0-8.85 3.91-8.85 9.09v22.87h-8.55V77.57h8.07v2.96 2.79l1.77-2.16c2.49-3.03 5.86-4.63 9.77-4.63 4.64 0 8.7 1.92 11.43 5.4l0.77 0.98 0.79-0.96C225.69 78.41 229.73 76.54 234.45 76.54M234.45 75.54c-5.23 0-9.51 2.22-12.45 5.79 -2.85-3.65-7.14-5.79-12.21-5.79 -4.44 0-8.01 1.9-10.54 4.99v-3.96h-10.07v40.83h10.55V93.53c0-4.6 3.25-8.09 7.85-8.09 6.9 0 7.61 5.71 7.61 8.09v23.87h10.54V93.53c0-4.6 3.25-8.09 7.93-8.09 6.82 0 7.61 5.71 7.61 8.09v23.87h10.47V93.53C251.73 82.83 245.39 75.54 234.45 75.54L234.45 75.54z"/>
  <path class="st1" d="M276.76 117.85c-11.23 0-20.04-9.15-20.04-20.83 0-11.77 8.8-20.99 20.04-20.99 11.28 0 20.11 9.22 20.11 20.99C296.88 108.7 288.04 117.85 276.76 117.85zM276.76 84.63c-6.03 0-10.57 5.36-10.57 12.47 0 6.93 4.54 12.16 10.57 12.16 6.03 0 10.57-5.23 10.57-12.15C287.33 89.99 282.79 84.63 276.76 84.63z"/>
  <path class="st1" d="M276.76 76.54c11 0 19.61 9 19.61 20.49 0 11.4-8.61 20.33-19.61 20.33 -10.95 0-19.54-8.93-19.54-20.33C257.22 85.54 265.81 76.54 276.76 76.54M276.76 109.76c6.31 0 11.07-5.44 11.07-12.65 0-7.4-4.76-12.97-11.07-12.97 -6.31 0-11.07 5.58-11.07 12.97C265.69 104.32 270.45 109.76 276.76 109.76M276.76 75.54c-11.34 0-20.54 9.28-20.54 21.49 0 12.21 9.2 21.33 20.54 21.33 11.34 0 20.61-9.12 20.61-21.33C297.38 84.81 288.1 75.54 276.76 75.54L276.76 75.54zM276.76 108.76c-5.55 0-10.07-4.76-10.07-11.65 0-7.06 4.52-11.97 10.07-11.97s10.07 4.92 10.07 11.97C286.83 104 282.31 108.76 276.76 108.76L276.76 108.76z"/>
  <path class="st1" d="M324.01 117.77c-4.67 0-8.97-1.8-12.09-5.08l-0.86-0.9v5.11h-9.07v-57.99h9.55v22.73l0.85-0.83c3.06-2.98 7.18-4.62 11.63-4.62 10.61 0 18.92 9.15 18.92 20.83C342.93 108.66 334.62 117.77 324.01 117.77zM322.5 84.87c-6.05 0-10.97 5.49-10.97 12.23 0 6.61 4.92 12 10.97 12 6.15 0 10.97-5.27 10.97-12C333.46 90.24 328.65 84.87 322.5 84.87z"/>
  <path class="st1" d="M311.03 59.41v21.04 2.37l1.7-1.65c2.96-2.88 6.97-4.47 11.28-4.47 10.33 0 18.42 8.93 18.42 20.33 0 11.35-8.09 20.25-18.42 20.25 -4.54 0-8.7-1.75-11.73-4.92l-1.72-1.81v2.5 3.36h-8.07v-56.99H311.03M322.5 109.6c6.43 0 11.47-5.49 11.47-12.5 0-7.14-5.04-12.73-11.47-12.73 -6.32 0-11.47 5.71-11.47 12.73C311.03 103.99 316.17 109.6 322.5 109.6M312.03 58.41h-10.54v58.99h10.07v-4.36c3.17 3.33 7.53 5.23 12.45 5.23 10.7 0 19.42-9.2 19.42-21.25 0-12.13-8.72-21.33-19.42-21.33 -4.68 0-8.88 1.75-11.97 4.76V58.41L312.03 58.41zM322.5 108.6c-5.79 0-10.47-5.15-10.47-11.5 0-6.5 4.68-11.73 10.47-11.73 5.79 0 10.47 5.08 10.47 11.73C332.96 103.6 328.29 108.6 322.5 108.6L322.5 108.6z"/>
  <rect x="348.05" y="58.91" class="st1" width="9.47" height="8.75"/>
  <path class="st1" d="M357.01 59.41v7.75h-8.46v-7.75H357.01M358.01 58.41h-10.46v9.75h10.47V58.41L358.01 58.41z"/>
  <rect x="348.05" y="74.7" class="st1" width="9.47" height="42.2"/>
  <path class="st1" d="M357.01 75.2v41.2h-8.46V75.2H357.01M358.01 74.2h-10.46v43.2h10.47V74.2L358.01 74.2z"/>
  <rect x="364.13" y="58.91" class="st1" width="9.47" height="57.99"/>
  <path class="st1" d="M373.09 59.41v56.99h-8.46v-56.99H373.09M374.09 58.41h-10.46v58.99h10.47V58.41L374.09 58.41z"/>
  <path class="st1" d="M399.05 117.85c-11.26 0-20.43-9.34-20.43-20.83 0-11.57 9.16-20.99 20.43-20.99 5.83 0 11.06 2.22 14.73 6.25 4.11 4.51 5.95 10.82 5.35 18.28h-31.04l0.17 0.63c1.41 5.22 5.51 8.46 10.71 8.46 3.89 0 7.2-1.77 8.94-4.76h10.21C415.54 112.91 408.3 117.85 399.05 117.85zM398.98 84.23c-4.92 0-8.96 3.11-10.55 8.12l-0.21 0.65h21.63l-0.17-0.63C408.37 87.43 404.17 84.23 398.98 84.23z"/>
  <path class="st1" d="M399.05 76.54c5.68 0 10.78 2.16 14.36 6.08 3.93 4.31 5.74 10.33 5.26 17.45h-29.92 -1.31l0.34 1.26c1.47 5.45 5.76 8.83 11.19 8.83 3.96 0 7.36-1.77 9.22-4.76h9.23c-2.7 7.51-9.47 11.96-18.37 11.96 -10.99 0-19.93-9.12-19.93-20.33C379.13 85.73 388.07 76.54 399.05 76.54M387.54 93.5h1.37 20.3 1.3l-0.33-1.26c-1.38-5.17-5.77-8.51-11.19-8.51 -5.14 0-9.37 3.24-11.02 8.47L387.54 93.5M399.05 75.54c-11.5 0-20.93 9.67-20.93 21.49 0 11.81 9.43 21.33 20.93 21.33 10.15 0 17.36-5.63 19.74-13.95h-11.18c-1.74 3.25-5.15 4.76-8.64 4.76 -4.92 0-8.88-3.09-10.23-8.09h30.84C421.1 84.89 411.11 75.54 399.05 75.54L399.05 75.54zM388.91 92.5c1.51-4.76 5.31-7.77 10.07-7.77 4.99 0 8.96 3.01 10.23 7.77H388.91L388.91 92.5z"/>
  <path class="st1" d="M425.1 81.47c-1.8 0-3.26-1.46-3.26-3.26 0-1.79 1.46-3.25 3.26-3.25 1.79 0 3.25 1.46 3.25 3.25C428.35 80.01 426.89 81.47 425.1 81.47zM425.1 75.79c-1.31 0-2.37 1.09-2.37 2.41 0 1.33 1.06 2.41 2.37 2.41 1.31 0 2.36-1.08 2.36-2.41C427.46 76.88 426.41 75.79 425.1 75.79zM426.69 79.78h-0.99l-0.49-0.97h-0.45v0.97h-0.88V76.46h1.59c0.77 0 1.2 0.48 1.2 1.19 0 0.46-0.23 0.8-0.59 0.98L426.69 79.78zM425.41 78.03c0.23 0 0.35-0.15 0.35-0.38 0-0.23-0.11-0.38-0.35-0.38h-0.65v0.76H425.41z"/>
</svg>
