<?xml version="1.0" encoding="utf-8"?>
<!-- Generator: Adobe Illustrator 16.0.4, SVG Export Plug-In . SVG Version: 6.00 Build 0)  -->
<!DOCTYPE svg PUBLIC "-//W3C//DTD SVG 1.1//EN" "http://www.w3.org/Graphics/SVG/1.1/DTD/svg11.dtd">
<svg version="1.1" id="Layer_1" xmlns="http://www.w3.org/2000/svg" xmlns:xlink="http://www.w3.org/1999/xlink" x="0px" y="0px"
	 width="432.63px" height="139.768px" viewBox="0 0 432.63 139.768" style="enable-background:new 0 0 432.63 139.768;"
	 xml:space="preserve">
<style type="text/css">
<![CDATA[
	.st0{fill:#F47B20;}
	.st1{fill:#455560;}
]]>
</style>
<g>
	<path class="st0" d="M389.476,57.886c-0.26-8.009-6.727-14.476-14.734-14.735v-8.48c12.684,0.263,22.952,10.532,23.216,23.216
		H389.476z"/>
	<path class="st0" d="M375.242,35.186c12.01,0.512,21.688,10.19,22.199,22.2h-7.488c-0.497-7.886-6.825-14.215-14.711-14.712V35.186
		 M374.242,34.165v9.478c8.131,0,14.742,6.614,14.742,14.744h9.479C398.462,45.029,387.597,34.165,374.242,34.165L374.242,34.165z"
		/>
</g>
<g>
	<path class="st0" d="M406.33,57.886c-0.267-17.298-14.289-31.321-31.588-31.587V17.82c21.975,0.266,39.799,18.091,40.065,40.066
		H406.33z"/>
	<path class="st0" d="M375.242,18.329c21.301,0.525,38.531,17.756,39.056,39.057h-7.479c-0.52-17.178-14.398-31.056-31.576-31.576
		V18.329 M374.242,17.317v9.478c17.422,0,31.592,14.172,31.592,31.591h9.477C415.31,35.742,396.89,17.317,374.242,17.317
		L374.242,17.317z"/>
</g>
<g>
	<path class="st0" d="M423.227,57.886c-0.267-26.617-21.868-48.218-48.485-48.485V1.002c31.25,0.267,56.62,25.635,56.887,56.884
		H423.227z"/>
	<path class="st0" d="M375.242,1.509c30.578,0.528,55.352,25.3,55.88,55.877h-7.401c-0.529-26.494-21.984-47.949-48.479-48.478
		V1.509 M374.242,0.5v9.398c26.736,0,48.488,21.751,48.488,48.488h9.4C432.13,26.466,406.162,0.5,374.242,0.5L374.242,0.5z"/>
</g>
<g>
	<g>
		<path class="st0" d="M98.289,108.335c-3.815,0-6.379-1.356-6.379-3.375c0-2.359,2.276-3.567,7.856-4.167
			c4.427-0.492,7.297-1.175,9.326-2.238v2.929C109.092,107.667,101.537,108.335,98.289,108.335z"/>
		<path class="st0" d="M108.592,99.35v2.134c0,5.732-7.205,6.352-10.303,6.352c-3.461,0-5.879-1.183-5.879-2.875
			c0-1.492,0.897-2.97,7.413-3.67C103.809,100.847,106.563,100.246,108.592,99.35 M109.592,97.687
			c-2.213,1.424-5.611,2.135-9.879,2.609c-5.141,0.553-8.303,1.66-8.303,4.664c0,2.293,2.689,3.875,6.879,3.875
			c6.244,0,11.303-2.135,11.303-7.352V97.687L109.592,97.687z"/>
	</g>
	<g>
		<path class="st0" d="M144.662,108.001c-5.565,0-9.924-4.81-9.924-10.949c0-6.272,4.359-11.186,9.924-11.186
			c5.471,0,9.922,5.018,9.922,11.186C154.584,103.089,150.133,108.001,144.662,108.001z"/>
		<path class="st0" d="M144.662,86.367c5.195,0,9.422,4.794,9.422,10.686c0,5.762-4.227,10.449-9.422,10.449
			c-5.284,0-9.424-4.59-9.424-10.449C135.238,91.06,139.378,86.367,144.662,86.367 M144.662,85.367
			c-5.766,0-10.424,5.053-10.424,11.686c0,6.477,4.658,11.449,10.424,11.449c5.764,0,10.422-5.131,10.422-11.449
			C155.084,90.578,150.426,85.367,144.662,85.367L144.662,85.367z"/>
	</g>
	<g>
		<path class="st0" d="M149.536,138.767l-1.356-0.02H17.32L1,138.766V58.433c0-7.854,6.389-14.244,14.242-14.244h17.764l0.5,0.004
			h130.838l13.639-0.004v80.333c0,7.854-6.39,14.244-14.244,14.244H149.536z M142.498,75.232c-11.13,0-19.85,9.55-19.85,21.74
			c0,12.148,8.719,21.664,19.85,21.664c4.566,0,8.681-1.564,11.973-4.538v3.671h10.949V58.017h-11.422v21.335
			C150.779,76.652,146.827,75.232,142.498,75.232z M101.768,84.431c4.551,0,6.932,1.697,6.932,3.373
			c0,2.695-3.925,3.572-11.167,4.246c-8.474,0.744-17.139,2.851-17.139,12.832c0,9.466,8.552,13.703,17.027,13.703
			c5.142,0,9.227-1.365,12.162-4.062c0.238,1.213,0.53,2.175,0.902,2.98l0.134,0.29h10.592l-0.234-0.666
			c-0.546-1.557-1.155-4.599-1.155-6.475V89.464c0-3.382-1.319-14.416-18.291-14.416c-10.634,0-18.522,5.608-19.628,13.956
			l-0.075,0.565h11.39l0.101-0.368C94.209,85.924,98.323,84.431,101.768,84.431z M59.555,85.945c6.39,0,7.08,5.282,7.08,7.553
			v24.271h11.422V93.498c0-11.364-6.787-18.424-17.713-18.424c-4.881,0-9.256,1.942-12.389,5.484
			c-2.993-3.542-7.291-5.484-12.169-5.484c-3.905,0-7.337,1.436-10.002,4.166v-3.139H14.754v41.668H26.26V93.498
			c0-4.376,3.076-7.553,7.314-7.553c6.159,0,7.078,4.732,7.078,7.553v24.271h11.504V93.498
			C52.156,89.122,55.268,85.945,59.555,85.945z"/>
		<path class="st0" d="M32.506,44.689v0.004h1h130.838l13.138-0.004v18.824v45.391v10.522v5.096c0,7.578-6.166,13.744-13.744,13.744
			h-12.82l0.023-0.02h-2.762H17.319L1.5,138.266v-18.839V74.051V63.514v-5.081c0-7.578,6.165-13.744,13.742-13.744H32.506
			 M153.498,78.319c-3.151-2.354-6.913-3.587-11-3.587c-11.411,0-20.35,9.77-20.35,22.24c0,12.429,8.938,22.164,20.35,22.164
			c4.314,0,8.238-1.359,11.473-3.955v2.088v1h1h9.949h1v-1V58.517v-1h-1h-10.422h-1v1V78.319 M81.255,90.07h1.141h10.438h0.764
			l0.201-0.737c0.787-2.89,4.604-4.401,7.969-4.401c4.177,0,6.432,1.48,6.432,2.873c0,2.301-3.928,3.117-10.708,3.748
			c-8.193,0.719-17.598,2.884-17.598,13.33c0,9.812,8.803,14.203,17.527,14.203c4.906,0,8.883-1.221,11.852-3.633
			c0.211,0.876,0.459,1.615,0.758,2.261l0.268,0.581h0.64h9.566h1.411l-0.467-1.331c-0.533-1.519-1.127-4.483-1.127-6.31V89.464
			c0-3.499-1.355-14.916-18.791-14.916c-10.896,0-18.983,5.783-20.124,14.39L81.255,90.07 M47.962,79.808
			c-3.068-3.385-7.347-5.234-12.177-5.234c-3.638,0-6.879,1.202-9.502,3.503v-1.476v-1h-1H15.254h-1v1v40.668v1h1H25.76h1v-1V93.498
			c0-4.087,2.866-7.053,6.814-7.053c5.724,0,6.578,4.419,6.578,7.053v23.771v1h1h10.504h1v-1V93.498
			c0-4.087,2.901-7.053,6.898-7.053c2.458,0,6.58,0.916,6.58,7.053v23.771v1h1h10.422h1v-1V93.498
			c0-11.496-7.149-18.924-18.213-18.924C55.512,74.574,51.16,76.423,47.962,79.808 M178.482,43.689l-14.139,0.004H33.506v-0.004
			H15.242C7.111,43.689,0.5,50.303,0.5,58.433v5.081v10.537v45.376v19.84l16.82-0.02H148.18l-0.023,0.02h15.582
			c8.133,0,14.744-6.614,14.744-14.744v-5.096v-10.522V63.514V43.689L178.482,43.689z M154.498,80.468V58.517h10.422v58.752h-9.949
			v-4.346c-3.236,3.318-7.5,5.213-12.473,5.213c-10.584,0-19.35-9.16-19.35-21.164c0-12.08,8.766-21.24,19.35-21.24
			C147.232,75.732,151.338,77.47,154.498,80.468L154.498,80.468z M82.396,89.07c1.027-7.75,8.463-13.521,19.133-13.521
			c16.523,0,17.791,10.674,17.791,13.916v21.189c0,1.977,0.629,5.061,1.184,6.641h-9.566c-0.475-1.027-0.791-2.293-1.029-3.795
			c-2.686,2.846-6.797,4.586-12.488,4.586c-8.619,0-16.527-4.348-16.527-13.203c0-9.172,7.672-11.543,16.686-12.334
			c6.797-0.633,11.621-1.424,11.621-4.744c0-2.135-2.768-3.873-7.432-3.873c-3.715,0-7.986,1.66-8.934,5.139H82.396L82.396,89.07z
			 M47.945,81.339c2.922-3.553,7.188-5.766,12.398-5.766c10.896,0,17.213,7.264,17.213,17.924v23.771H67.135V93.498
			c0-2.367-0.789-8.053-7.58-8.053c-4.658,0-7.898,3.475-7.898,8.053v23.771H41.152V93.498c0-2.367-0.709-8.053-7.578-8.053
			c-4.58,0-7.814,3.475-7.814,8.053v23.771H15.254V76.601h10.029v3.947c2.527-3.078,6.08-4.975,10.502-4.975
			C40.84,75.574,45.104,77.705,47.945,81.339L47.945,81.339z"/>
	</g>
</g>
<g>
	<g>
		<path class="st1" d="M241.767,116.899V93.533c0-2.015-0.585-8.587-8.113-8.587c-4.884,0-8.428,3.611-8.428,8.587v23.366h-9.544
			V93.533c0-2.015-0.585-8.587-8.113-8.587c-4.837,0-8.348,3.611-8.348,8.587v23.366h-9.547V77.066h9.07v4.86l0.886-1.08
			c2.584-3.147,6.096-4.812,10.157-4.812c4.796,0,8.994,1.987,11.819,5.597l0.384,0.49l0.396-0.481
			c2.973-3.614,7.257-5.605,12.062-5.605c10.354,0,16.785,6.705,16.785,17.498v23.366H241.767z"/>
		<path class="st1" d="M234.447,76.535c10.045,0,16.285,6.514,16.285,16.998v22.866h-8.465V93.533c0-4.393-2.263-9.087-8.613-9.087
			c-5.173,0-8.928,3.821-8.928,9.087v22.866h-8.544V93.533c0-2.132-0.621-9.087-8.613-9.087c-5.044,0-8.848,3.906-8.848,9.087
			v22.866h-8.547V77.566h8.07v2.963v2.794l1.773-2.159c2.485-3.028,5.864-4.629,9.77-4.629c4.639,0,8.697,1.919,11.425,5.404
			l0.768,0.981l0.792-0.963C225.69,78.41,229.727,76.535,234.447,76.535 M234.447,75.535c-5.232,0-9.514,2.221-12.447,5.788
			c-2.855-3.647-7.136-5.788-12.212-5.788c-4.438,0-8.006,1.903-10.543,4.994v-3.963h-10.07v40.833h10.547V93.533
			c0-4.599,3.25-8.087,7.848-8.087c6.9,0,7.613,5.709,7.613,8.087v23.866h10.544V93.533c0-4.599,3.25-8.087,7.928-8.087
			c6.818,0,7.613,5.709,7.613,8.087v23.866h10.465V93.533C251.732,82.83,245.39,75.535,234.447,75.535L234.447,75.535z"/>
	</g>
	<g>
		<path class="st1" d="M276.761,117.851c-11.235,0-20.037-9.148-20.037-20.828c0-11.77,8.802-20.988,20.037-20.988
			c11.278,0,20.113,9.219,20.113,20.988C296.875,108.703,288.04,117.851,276.761,117.851z M276.761,84.628
			c-6.026,0-10.57,5.362-10.57,12.473c0,6.93,4.544,12.155,10.57,12.155c6.025,0,10.568-5.226,10.568-12.155
			C287.33,89.991,282.787,84.628,276.761,84.628z"/>
		<path class="st1" d="M276.761,76.535c10.998,0,19.613,9,19.613,20.488c0,11.399-8.615,20.328-19.613,20.328
			c-10.955,0-19.537-8.929-19.537-20.328C257.224,85.535,265.806,76.535,276.761,76.535 M276.761,109.756
			c6.31,0,11.068-5.44,11.068-12.655c0-7.396-4.759-12.973-11.068-12.973c-6.312,0-11.07,5.577-11.07,12.973
			C265.691,104.316,270.45,109.756,276.761,109.756 M276.761,75.535c-11.34,0-20.537,9.276-20.537,21.488
			c0,12.209,9.197,21.328,20.537,21.328c11.336,0,20.613-9.119,20.613-21.328C297.375,84.811,288.097,75.535,276.761,75.535
			L276.761,75.535z M276.761,108.756c-5.551,0-10.07-4.757-10.07-11.655c0-7.058,4.52-11.973,10.07-11.973
			s10.068,4.915,10.068,11.973C286.83,104,282.312,108.756,276.761,108.756L276.761,108.756z"/>
	</g>
	<g>
		<path class="st1" d="M324.005,117.771c-4.675,0-8.968-1.803-12.087-5.077l-0.862-0.905v5.11h-9.07v-57.99h9.545v22.727
			l0.849-0.827c3.055-2.977,7.184-4.616,11.626-4.616c10.611,0,18.924,9.149,18.924,20.83
			C342.929,108.658,334.617,117.771,324.005,117.771z M322.498,84.867c-6.047,0-10.967,5.488-10.967,12.234
			c0,6.614,4.92,11.996,10.967,11.996c6.149,0,10.967-5.27,10.967-11.996C333.464,90.241,328.647,84.867,322.498,84.867z"/>
		<path class="st1" d="M311.031,59.409v21.042v2.371l1.698-1.655c2.961-2.885,6.966-4.474,11.276-4.474
			c10.331,0,18.424,8.93,18.424,20.33c0,11.354-8.093,20.248-18.424,20.248c-4.537,0-8.701-1.748-11.726-4.922l-1.724-1.81v2.499
			v3.36h-8.07v-56.99H311.031 M322.498,109.597c6.43,0,11.467-5.489,11.467-12.496c0-7.141-5.037-12.734-11.467-12.734
			c-6.323,0-11.467,5.713-11.467,12.734C311.031,103.992,316.174,109.597,322.498,109.597 M312.031,58.409h-10.545v58.99h10.07
			v-4.36c3.172,3.329,7.533,5.232,12.449,5.232c10.703,0,19.424-9.197,19.424-21.248c0-12.132-8.721-21.33-19.424-21.33
			c-4.68,0-8.883,1.745-11.975,4.758V58.409L312.031,58.409z M322.498,108.597c-5.789,0-10.467-5.152-10.467-11.496
			c0-6.502,4.678-11.734,10.467-11.734c5.787,0,10.467,5.075,10.467,11.734C332.964,103.603,328.285,108.597,322.498,108.597
			L322.498,108.597z"/>
	</g>
	<g>
		<rect x="348.048" y="58.909" class="st1" width="9.465" height="8.752"/>
		<path class="st1" d="M357.013,59.409v7.752h-8.465v-7.752H357.013 M358.013,58.409h-10.465v9.752h10.465V58.409L358.013,58.409z"
			/>
	</g>
	<g>
		<rect x="348.048" y="74.701" class="st1" width="9.465" height="42.198"/>
		<path class="st1" d="M357.013,75.201v41.198h-8.465V75.201H357.013 M358.013,74.201h-10.465v43.198h10.465V74.201L358.013,74.201z
			"/>
	</g>
	<g>
		<rect x="364.125" y="58.909" class="st1" width="9.465" height="57.99"/>
		<path class="st1" d="M373.089,59.409v56.99h-8.465v-56.99H373.089 M374.089,58.409h-10.465v58.99h10.465V58.409L374.089,58.409z"
			/>
	</g>
	<g>
		<path class="st1" d="M399.054,117.851c-11.265,0-20.43-9.344-20.43-20.828c0-11.573,9.165-20.988,20.43-20.988
			c5.825,0,11.055,2.219,14.725,6.247c4.107,4.507,5.954,10.821,5.354,18.284h-31.039l0.171,0.631
			c1.409,5.217,5.514,8.457,10.711,8.457c3.888,0,7.204-1.772,8.936-4.758h10.212C415.541,112.906,408.296,117.851,399.054,117.851z
			 M398.976,84.232c-4.918,0-8.96,3.11-10.547,8.118l-0.206,0.651h21.63l-0.167-0.629C408.37,87.427,404.167,84.232,398.976,84.232z
			"/>
		<path class="st1" d="M399.054,76.535c5.683,0,10.781,2.16,14.355,6.083c3.927,4.31,5.737,10.327,5.259,17.448h-29.921h-1.306
			l0.34,1.261c1.472,5.445,5.761,8.827,11.194,8.827c3.961,0,7.359-1.767,9.219-4.758h9.231
			c-2.701,7.514-9.473,11.955-18.372,11.955c-10.989,0-19.93-9.119-19.93-20.328C379.125,85.726,388.065,76.535,399.054,76.535
			 M387.54,93.501h1.366h20.297h1.301l-0.334-1.257c-1.376-5.171-5.77-8.513-11.193-8.513c-5.145,0-9.368,3.244-11.023,8.468
			L387.54,93.501 M399.054,75.535c-11.496,0-20.93,9.674-20.93,21.488c0,11.812,9.434,21.328,20.93,21.328
			c10.148,0,17.363-5.63,19.744-13.955h-11.18c-1.744,3.251-5.154,4.758-8.643,4.758c-4.916,0-8.879-3.094-10.229-8.088h30.844
			C421.097,84.891,411.109,75.535,399.054,75.535L399.054,75.535z M388.906,92.501c1.508-4.757,5.314-7.77,10.07-7.77
			c4.994,0,8.961,3.013,10.227,7.77H388.906L388.906,92.501z"/>
	</g>
</g>
<g>
	<path class="st1" d="M425.102,81.466c-1.801,0-3.259-1.459-3.259-3.26c0-1.791,1.458-3.25,3.259-3.25c1.791,0,3.25,1.459,3.25,3.25
		C428.352,80.007,426.893,81.466,425.102,81.466z M425.102,75.794c-1.306,0-2.368,1.089-2.368,2.412
		c0,1.333,1.062,2.413,2.368,2.413c1.305,0,2.358-1.08,2.358-2.413C427.46,76.883,426.407,75.794,425.102,75.794z M426.686,79.783
		h-0.99l-0.486-0.973h-0.45v0.973h-0.882V76.46h1.585c0.773,0,1.197,0.478,1.197,1.188c0,0.459-0.234,0.801-0.595,0.981
		L426.686,79.783z M425.408,78.027c0.234,0,0.352-0.153,0.352-0.378c0-0.234-0.108-0.378-0.352-0.378h-0.648v0.756H425.408z"/>
</g>
</svg>
